<svg xmlns="http://www.w3.org/2000/svg" fill="none" viewBox="0 0 442 442" class="w-full p-rlg"><path fill="url(#a)" fill-rule="evenodd" d="m214.959 74.031-.143.205c-1.441 2.092-2.779 5.095-4.025 8.838-2.499 7.503-4.729 18.291-6.596 31.539a463.1 463.1 0 0 0-1.957 16.055l-22.606.007c1.466-5.464 3.065-10.625 4.784-15.447 4.685-13.138 10.233-23.679 16.328-30.91 4.543-5.39 9.32-8.864 14.215-10.287Zm5.071-.734c-.758 0-1.807.557-3.081 2.407-1.239 1.8-2.485 4.538-3.701 8.188-2.426 7.283-4.63 17.891-6.488 31.082a455.144 455.144 0 0 0-1.917 15.693l30.373-.01a457.33 457.33 0 0 0-1.916-15.683c-1.858-13.191-4.062-23.799-6.488-31.082-1.216-3.65-2.462-6.388-3.701-8.188-1.274-1.85-2.323-2.407-3.081-2.407Zm17.79 57.359a463.056 463.056 0 0 0-1.955-16.043c-1.867-13.248-4.097-24.036-6.596-31.54-1.246-3.742-2.584-6.745-4.025-8.837a13.258 13.258 0 0 0-.143-.205c4.894 1.423 9.671 4.897 14.214 10.287 6.096 7.231 11.644 17.772 16.328 30.91 1.709 4.794 3.3 9.924 4.759 15.353a8.556 8.556 0 0 1-1.002.059l.01.01-21.59.006Zm-.116 30.721-3.044 3.443a15.445 15.445 0 0 1-11.56 5.21l-21.214.006a963.254 963.254 0 0 0-1.072 36.036l6.746-.002a8.575 8.575 0 0 0 6.19-2.64l12.38-12.92a8.193 8.193 0 0 1 5.92-2.53h.51a8.193 8.193 0 0 1 6.14 2.76l.262.296a901.946 901.946 0 0 0-1.258-29.659Zm3.924 32.669a904.652 904.652 0 0 0-1.497-35.413l3.479-3.933a8.17 8.17 0 0 1 2.772-2.046 8.162 8.162 0 0 1 3.368-.724c2.35 0 4.58 1.01 6.14 2.76l10.44 11.79c.399.45.835.864 1.303 1.237 1.591 12.098 2.626 24.959 3.017 38.337l-13.67.006c-3 0-5.85-1.28-7.84-3.53l-7.512-8.484Zm-2.674 51.417-16.584.007c-3 0-5.85-1.28-7.84-3.53l-10.44-11.79a8.197 8.197 0 0 0-3.299-2.254c.179 19.202.881 37.383 2.006 53.83.568.095 1.144.143 1.723.144h26.91l5.824-.005c.78-11.381 1.358-23.594 1.7-36.402Zm.896 36.4c.778-11.391 1.354-23.603 1.695-36.401l6.555-.002h12.52l9.291-.003c-.869 12.812-2.335 25.024-4.313 36.396l-21.648.007-4.1.003Zm-6.1 36.067-27.439.009c.147 1.113.297 2.21.449 3.291 1.858 13.191 4.062 23.798 6.488 31.081 1.216 3.651 2.462 6.389 3.701 8.188 1.274 1.851 2.323 2.408 3.081 2.408s1.807-.557 3.081-2.408c1.239-1.799 2.485-4.537 3.701-8.188 2.426-7.283 4.63-17.89 6.488-31.081.152-1.083.303-2.184.45-3.3Zm-8.649 44.242c.048-.067.096-.135.143-.204 1.441-2.093 2.779-5.095 4.025-8.838 2.499-7.503 4.729-18.291 6.596-31.539.169-1.2.335-2.421.498-3.662l20.337-.007c-.347 1.032-.699 2.05-1.057 3.053-4.684 13.139-10.232 23.68-16.328 30.911-4.543 5.389-9.32 8.864-14.214 10.286Zm-10.142 0a10.519 10.519 0 0 1-.143-.204c-1.441-2.093-2.779-5.095-4.025-8.838-2.499-7.503-4.729-18.291-6.596-31.539a431.912 431.912 0 0 1-.497-3.652l-.428.001h-12.52l-7.384.002a178.25 178.25 0 0 0 1.05 3.033c4.685 13.139 10.233 23.68 16.328 30.911 4.543 5.39 9.32 8.864 14.215 10.286Zm-14.813-81.262c-1.1-16.395-1.782-34.464-1.95-53.516a8.195 8.195 0 0 0-6.386 2.766l-8.95 10.12a15.46 15.46 0 0 1-11.56 5.21h-1.148a367.47 367.47 0 0 0 2.175 22.231l1.343-1.401a8.203 8.203 0 0 1 5.92-2.53h.51c2.35 0 4.58 1 6.14 2.76l10.44 11.79a10.483 10.483 0 0 0 3.466 2.57Zm-1.922-74.838a964.54 964.54 0 0 1 1.069-36.036l-27.164.008c-1.424 11.424-2.355 23.503-2.72 36.037l28.815-.009Zm.54-123.424c2.475-2.936 5.074-5.395 7.781-7.304-16.537 5.074-31.482 19.337-43.063 40.081-2.66 4.765-5.138 9.863-7.41 15.258l20.879-.007c1.532-5.778 3.212-11.231 5.026-16.317 4.742-13.301 10.419-24.156 16.787-31.71Zm59.319 31.711c1.731 4.855 3.341 10.045 4.816 15.532A8.662 8.662 0 0 0 265.59 128l11.377-11.874-.389-.701c-11.582-20.744-26.526-35.007-43.064-40.08 2.707 1.908 5.306 4.367 7.782 7.303 6.368 7.555 12.045 18.41 16.787 31.711Zm12.369 54.966c1.464 11.645 2.418 23.958 2.789 36.728l10.649-.003h12.52l3.62-.002c-.574-12.537-2.037-24.617-4.272-36.038H274.17a10.481 10.481 0 0 1-3.718-.685Zm2.054 76.131c-.86 12.791-2.314 25.001-4.279 36.397l23.878-.007c3.104-11.37 5.404-23.582 6.766-36.398l-26.365.008Zm-31.21 108.099c-2.476 2.937-5.075 5.396-7.782 7.305 16.538-5.074 31.482-19.337 43.064-40.081.526-.942 1.044-1.896 1.556-2.864l-18.703.006c-.441 1.331-.89 2.639-1.348 3.924-4.742 13.3-10.419 24.155-16.787 31.71Zm-42.532 0c2.475 2.937 5.074 5.396 7.781 7.304-16.537-5.073-31.482-19.336-43.063-40.08-.62-1.11-1.23-2.238-1.829-3.384 1.072.364 2.208.555 3.367.555l15.616-.007c.438 1.324.885 2.625 1.341 3.902 4.742 13.3 10.419 24.155 16.787 31.71Zm-31.208-108.064a368.911 368.911 0 0 0 2.475 24.626l-8.741 9.123a8.601 8.601 0 0 1-6.19 2.64v.02l-7.13.002c-3.107-11.371-5.411-23.585-6.776-36.403l26.362-.008Zm1.963-75.446c-1.415 11.441-2.338 23.519-2.701 36.037l-26.79.008c.572-12.537 2.033-24.616 4.265-36.038l25.226-.007Zm27.96-93.842c-14.002 7-26.418 20.334-36.258 37.959-2.874 5.147-5.534 10.669-7.957 16.522l-23.117.007c16.281-27.556 40.056-47.36 67.332-54.488Zm81.412 38.051-.052-.092c-9.84-17.625-22.256-30.96-36.258-37.96 27.256 7.124 51.016 26.903 67.296 54.428h-1.057a10.5 10.5 0 0 1-7.84-3.53l-10.44-11.79a8.227 8.227 0 0 0-6.14-2.76h-.51a8.203 8.203 0 0 0-4.999 1.704Zm23.732 91.794c-.568-12.517-2.013-24.595-4.226-36.038h1.503l12.52-.01.01.01h13.973c3.127 11.412 5.173 23.488 5.977 36.029l-29.757.009Zm-7.834 75.797c3.071-11.399 5.342-23.609 6.687-36.397l29.286-.009c-1.906 12.823-5.126 25.034-9.472 36.399l-26.501.007Zm-52.208 78.156c14.002-7 26.418-20.334 36.258-37.959a146.122 146.122 0 0 0 2.217-4.128l20.644-.006c-15.625 21.071-36.128 36.084-59.119 42.093Zm-45.102 0c-14.002-7-26.418-20.334-36.258-37.959a148.578 148.578 0 0 1-3.881-7.445l-.16-.177-10.44-11.79a8.197 8.197 0 0 0-12.28.01l-3.599 4.069c16.258 26.932 39.738 46.267 66.618 53.292Zm-52.193-78.099c-3.074-11.4-5.348-23.611-6.696-36.402l-29.281.009c1.911 12.824 5.137 25.036 9.489 36.401l26.488-.008Zm-7.851-75.811c.566-12.516 2.009-24.595 4.22-36.038l-28.012.008c-3.125 11.416-5.167 23.495-5.967 36.039l29.759-.009ZM76.63 245.52l30.068-.01c1.883 12.784 5.058 24.996 9.349 36.401l-27.457.009c-5.51-11.39-9.55-23.6-11.96-36.4Zm48.88 67.24 3.562-4.028c16.535 27.092 40.33 46.638 67.736 53.783-32.728-5.244-61.814-21.375-83.458-44.545h.6a15.446 15.446 0 0 0 11.56-5.21Zm201.31 5.14c-21.681 23.243-50.845 39.419-83.667 44.641 24.246-6.293 45.671-22.291 61.751-44.634l21.916-.007Zm24.79-36.07-27.569.007c4.285-11.405 7.454-23.616 9.332-36.399l30.177-.008c-2.4 12.79-6.44 25.01-11.94 36.4Zm13.91-75.8-30.546.008c-.794-12.506-2.812-24.583-5.902-36.028h28.768c4.01 11.42 6.63 23.49 7.68 36.02Zm-28.73-75.4h-23.927c-15.716-27.222-38.597-47.318-65.166-55.665 36.24 6.937 67.724 27.279 89.093 55.665Zm-233.47.07c21.322-28.342 52.714-48.682 88.864-55.678-26.513 8.386-49.341 28.478-65.023 55.67l-23.841.008Zm-21.07 39.37 28.724-.009c-3.087 11.45-5.101 23.53-5.891 36.039l-30.493.01c1.04-12.53 3.65-24.61 7.66-36.04Z" clip-rule="evenodd" filter="url(#global-page-svg-filter-noise)"></path><path id="svg-globe-text-path" fill="none" d="M234.5 34.559c95.395 7.396 170.5 87.147 170.5 184.44 0 102.172-82.827 185-185 185s-185-82.828-185-185c0-97.293 75.105-177.044 170.5-184.44"></path><text style="font-family:var(--font-sans);font-size:25px;font-weight:300;fill:#fff;text-transform:uppercase" word-spacing="25"><textPath href="#svg-globe-text-path" textLength="1120">People Entertainment Defi NFTs Social Scalability Gaming</textPath></text><defs><linearGradient id="a" x1="350" x2="94.41" y1="145.906" y2="296.81" gradientUnits="userSpaceOnUse"><stop stop-color="#E3AB65"></stop><stop offset=".5" stop-color="#A4D5B8"></stop><stop offset="1" stop-color="#93D0D2"></stop></linearGradient></defs></svg>